<svg width="100" height="57" viewBox="0 0 100 57" fill="none" xmlns="http://www.w3.org/2000/svg">
<path d="M59.8164 42.8018C58.1888 44.1852 56.6182 45.1618 55.1045 45.7314C53.6071 46.3011 51.9958 46.5859 50.2705 46.5859C47.4222 46.5859 45.2331 45.8942 43.7031 44.5107C42.1732 43.111 41.4082 41.3288 41.4082 39.1641C41.4082 37.8945 41.693 36.7389 42.2627 35.6973C42.8486 34.6393 43.6055 33.793 44.5332 33.1582C45.4772 32.5234 46.5352 32.0433 47.707 31.7178C48.5697 31.4899 49.8717 31.2702 51.6133 31.0586C55.1615 30.6354 57.7738 30.1309 59.4502 29.5449C59.4665 28.9427 59.4746 28.5602 59.4746 28.3975C59.4746 26.6071 59.0596 25.3457 58.2295 24.6133C57.1064 23.6204 55.4382 23.124 53.2246 23.124C51.1576 23.124 49.6276 23.4902 48.6348 24.2227C47.6582 24.9388 46.9339 26.2165 46.4619 28.0557L42.165 27.4697C42.5557 25.6305 43.1986 24.1494 44.0938 23.0264C44.9889 21.887 46.2829 21.0163 47.9756 20.4141C49.6683 19.7956 51.6296 19.4863 53.8594 19.4863C56.0729 19.4863 57.8714 19.7467 59.2549 20.2676C60.6383 20.7884 61.6556 21.4476 62.3066 22.2451C62.9577 23.0264 63.4134 24.0192 63.6738 25.2236C63.8203 25.9723 63.8936 27.3232 63.8936 29.2764V35.1357C63.8936 39.221 63.9831 41.8089 64.1621 42.8994C64.3574 43.9736 64.7318 45.0072 65.2852 46H60.6953C60.2396 45.0885 59.9466 44.0225 59.8164 42.8018ZM59.4502 32.9873C57.8551 33.6383 55.4626 34.1917 52.2725 34.6475C50.4658 34.9079 49.1882 35.2008 48.4395 35.5264C47.6908 35.8519 47.113 36.332 46.7061 36.9668C46.2992 37.5853 46.0957 38.277 46.0957 39.042C46.0957 40.2139 46.5352 41.1904 47.4141 41.9717C48.3092 42.7529 49.6113 43.1436 51.3203 43.1436C53.013 43.1436 54.5186 42.7773 55.8369 42.0449C57.1553 41.2962 58.1237 40.279 58.7422 38.9932C59.2142 38.0003 59.4502 36.5355 59.4502 34.5986V32.9873ZM71.6807 46V20.0723H75.6357V24.0029C76.6449 22.1637 77.5726 20.9512 78.4189 20.3652C79.2816 19.7793 80.2256 19.4863 81.251 19.4863C82.7321 19.4863 84.2376 19.9583 85.7676 20.9023L84.2539 24.9795C83.1797 24.3447 82.1055 24.0273 81.0312 24.0273C80.071 24.0273 79.2083 24.3203 78.4434 24.9062C77.6784 25.4759 77.1331 26.2734 76.8076 27.2988C76.3193 28.8613 76.0752 30.5703 76.0752 32.4258V46H71.6807ZM98.9746 42.0693L99.6094 45.9512C98.3724 46.2116 97.2656 46.3418 96.2891 46.3418C94.694 46.3418 93.457 46.0895 92.5781 45.585C91.6992 45.0804 91.0807 44.4212 90.7227 43.6074C90.3646 42.7773 90.1855 41.0439 90.1855 38.4072V23.4902H86.9629V20.0723H90.1855V13.6514L94.5557 11.0146V20.0723H98.9746V23.4902H94.5557V38.6514C94.5557 39.9046 94.6289 40.7103 94.7754 41.0684C94.9382 41.4264 95.1904 41.7113 95.5322 41.9229C95.8903 42.1344 96.3949 42.2402 97.0459 42.2402C97.5342 42.2402 98.1771 42.1833 98.9746 42.0693Z" fill="white"/>
<path d="M1.86475 37.7251L5.94971 37.0825C6.1792 38.7196 6.81413 39.9741 7.85449 40.8462C8.91016 41.7183 10.3789 42.1543 12.2607 42.1543C14.1579 42.1543 15.5654 41.7718 16.4834 41.0068C17.4014 40.2266 17.8604 39.3162 17.8604 38.2759C17.8604 37.3426 17.4549 36.6082 16.644 36.0728C16.078 35.7056 14.6704 35.2389 12.4214 34.6729C9.39209 33.9079 7.28841 33.25 6.11035 32.6992C4.94759 32.1331 4.06022 31.3605 3.44824 30.3813C2.85156 29.3869 2.55322 28.293 2.55322 27.0996C2.55322 26.0133 2.79801 25.0112 3.2876 24.0933C3.79248 23.16 4.47331 22.3874 5.33008 21.7754C5.97266 21.3011 6.84473 20.9033 7.94629 20.582C9.06315 20.2454 10.2565 20.0771 11.5264 20.0771C13.4388 20.0771 15.1141 20.3525 16.5522 20.9033C18.0057 21.4541 19.0767 22.2038 19.7651 23.1523C20.4536 24.0856 20.9279 25.3402 21.188 26.916L17.1489 27.4668C16.9653 26.2122 16.4299 25.2331 15.5425 24.5293C14.6704 23.8255 13.4312 23.4736 11.8247 23.4736C9.92757 23.4736 8.57357 23.7873 7.7627 24.4146C6.95182 25.0418 6.54639 25.7762 6.54639 26.6177C6.54639 27.1532 6.71468 27.6351 7.05127 28.0635C7.38786 28.5072 7.91569 28.8743 8.63477 29.165C9.04785 29.318 10.2642 29.6699 12.2837 30.2207C15.2059 31.001 17.2407 31.6436 18.3882 32.1484C19.5509 32.638 20.4613 33.3571 21.1191 34.3057C21.777 35.2542 22.106 36.4323 22.106 37.8398C22.106 39.2168 21.7005 40.5173 20.8896 41.7412C20.0941 42.9499 18.939 43.8908 17.4243 44.564C15.9097 45.2218 14.1961 45.5508 12.2837 45.5508C9.1167 45.5508 6.69938 44.8929 5.03174 43.5771C3.37939 42.2614 2.32373 40.3107 1.86475 37.7251ZM37.0361 41.3052L37.6328 44.9541C36.4701 45.1989 35.4297 45.3213 34.5117 45.3213C33.0124 45.3213 31.8496 45.0841 31.0234 44.6099C30.1973 44.1356 29.6159 43.516 29.2793 42.751C28.9427 41.9707 28.7744 40.3413 28.7744 37.8628V23.8408H25.7451V20.6279H28.7744V14.5923L32.8823 12.1138V20.6279H37.0361V23.8408H32.8823V38.0923C32.8823 39.2703 32.9512 40.0277 33.0889 40.3643C33.2419 40.7008 33.479 40.9686 33.8003 41.1675C34.1369 41.3664 34.6112 41.4658 35.2231 41.4658C35.6821 41.4658 36.2865 41.4123 37.0361 41.3052Z" fill="#FF8577"/>
<path d="M1.86475 37.7251L1.67827 36.5397L0.469314 36.7298L0.683218 37.9348L1.86475 37.7251ZM5.94971 37.0825L7.13809 36.9159L6.96868 35.7075L5.76324 35.8971L5.94971 37.0825ZM7.85449 40.8462L7.08359 41.7659L7.09023 41.7713L7.85449 40.8462ZM16.4834 41.0068L17.2517 41.9287L17.2606 41.9212L16.4834 41.0068ZM16.644 36.0728L17.3053 35.0714L17.2971 35.066L16.644 36.0728ZM12.4214 34.6729L12.1276 35.8363L12.1285 35.8366L12.4214 34.6729ZM6.11035 32.6992L5.58508 33.7782L5.59357 33.7823L5.60212 33.7863L6.11035 32.6992ZM3.44824 30.3813L2.41925 30.9987L2.42486 31.0081L2.43064 31.0173L3.44824 30.3813ZM3.2876 24.0933L2.23213 23.5223L2.22877 23.5286L3.2876 24.0933ZM5.33008 21.7754L6.02756 22.7519L6.03518 22.7464L6.0427 22.7409L5.33008 21.7754ZM7.94629 20.582L8.2823 21.7341L8.29255 21.731L7.94629 20.582ZM16.5522 20.9033L16.1231 22.024L16.127 22.0255L16.5522 20.9033ZM19.7651 23.1523L18.7939 23.8572L18.7995 23.8647L19.7651 23.1523ZM21.188 26.916L21.3501 28.105L22.5729 27.9383L22.372 26.7206L21.188 26.916ZM17.1489 27.4668L15.9616 27.6406L16.1336 28.8164L17.3111 28.6558L17.1489 27.4668ZM15.5425 24.5293L14.7888 25.4632L14.7968 25.4695L15.5425 24.5293ZM7.05127 28.0635L8.0073 27.3382L8.00114 27.3301L7.99485 27.3221L7.05127 28.0635ZM8.63477 29.165L8.18502 30.2776L8.20141 30.2842L8.21799 30.2903L8.63477 29.165ZM12.2837 30.2207L11.9679 31.3784L11.9741 31.3801L12.2837 30.2207ZM18.3882 32.1484L17.9049 33.2468L17.9137 33.2507L17.9225 33.2544L18.3882 32.1484ZM20.8896 41.7412L19.8893 41.0785L19.8873 41.0814L20.8896 41.7412ZM17.4243 44.564L17.9024 45.6647L17.9117 45.6605L17.4243 44.564ZM5.03174 43.5771L4.28422 44.5159L4.28845 44.5192L5.03174 43.5771ZM2.05122 38.9105L6.13618 38.2679L5.76324 35.8971L1.67827 36.5397L2.05122 38.9105ZM4.76133 37.2491C5.02262 39.113 5.76862 40.6636 7.08361 41.7658L8.62537 39.9265C7.85964 39.2847 7.33577 38.3261 7.13809 36.9159L4.76133 37.2491ZM7.09023 41.7713C8.42932 42.8775 10.2038 43.3543 12.2607 43.3543V40.9543C10.554 40.9543 9.39099 40.559 8.61875 39.921L7.09023 41.7713ZM12.2607 43.3543C14.2834 43.3543 16.023 42.9525 17.2516 41.9287L15.7152 40.085C15.1078 40.5911 14.0324 40.9543 12.2607 40.9543V43.3543ZM17.2606 41.9212C18.3997 40.9529 19.0604 39.7258 19.0604 38.2759H16.6604C16.6604 38.9067 16.4031 39.5002 15.7062 40.0925L17.2606 41.9212ZM19.0604 38.2759C19.0604 36.92 18.4359 35.818 17.3053 35.0714L15.9828 37.0741C16.4739 37.3985 16.6604 37.7652 16.6604 38.2759H19.0604ZM17.2971 35.066C16.8754 34.7925 16.255 34.5449 15.5414 34.3083C14.7988 34.0621 13.8534 33.7959 12.7143 33.5091L12.1285 35.8366C13.2384 36.1159 14.1213 36.366 14.7862 36.5864C15.4802 36.8165 15.8466 36.9858 15.991 37.0795L17.2971 35.066ZM12.7152 33.5094C9.68588 32.7444 7.68239 32.1095 6.61859 31.6122L5.60212 33.7863C6.89444 34.3905 9.0983 35.0714 12.1276 35.8363L12.7152 33.5094ZM6.63562 31.6203C5.65026 31.1406 4.94458 30.5113 4.46584 29.7453L2.43064 31.0173C3.17587 32.2097 4.24492 33.1257 5.58508 33.7782L6.63562 31.6203ZM4.47723 29.764C3.99581 28.9616 3.75322 28.0821 3.75322 27.0996H1.35322C1.35322 28.5038 1.70732 29.8122 2.41925 30.9987L4.47723 29.764ZM3.75322 27.0996C3.75322 26.2013 3.95367 25.3944 4.34642 24.658L2.22877 23.5286C1.64236 24.6281 1.35322 25.8254 1.35322 27.0996H3.75322ZM4.34305 24.6642C4.76173 23.8903 5.32062 23.2568 6.02756 22.7519L4.63259 20.7989C3.626 21.5179 2.82323 22.4297 2.23215 23.5223L4.34305 24.6642ZM6.0427 22.7409C6.53376 22.3784 7.2621 22.0316 8.28229 21.734L7.61029 19.43C6.42735 19.7751 5.41155 20.2238 4.61746 20.8099L6.0427 22.7409ZM8.29255 21.731C9.28763 21.4311 10.3635 21.2771 11.5264 21.2771V18.8771C10.1495 18.8771 8.83868 19.0598 7.60003 19.4331L8.29255 21.731ZM11.5264 21.2771C13.3263 21.2771 14.8506 21.5366 16.1231 22.0239L16.9814 19.7827C15.3776 19.1685 13.5513 18.8771 11.5264 18.8771V21.2771ZM16.127 22.0255C17.4316 22.5198 18.2811 23.1506 18.794 23.8572L20.7363 22.4475C19.8722 21.257 18.5797 20.3884 16.9775 19.7812L16.127 22.0255ZM18.7995 23.8647C19.341 24.5989 19.7638 25.6559 20.004 27.1114L22.372 26.7206C22.092 25.0244 21.5662 23.5724 20.7308 22.44L18.7995 23.8647ZM21.0259 25.727L16.9868 26.2778L17.3111 28.6558L21.3501 28.105L21.0259 25.727ZM18.3363 27.293C18.1142 25.7752 17.4443 24.506 16.2882 23.5891L14.7968 25.4695C15.4154 25.9601 15.8165 26.6493 15.9616 27.6406L18.3363 27.293ZM16.2961 23.5955C15.1351 22.6585 13.5894 22.2736 11.8247 22.2736V24.6736C13.2729 24.6736 14.2057 24.9925 14.7889 25.4631L16.2961 23.5955ZM11.8247 22.2736C9.85878 22.2736 8.16498 22.5862 7.02845 23.4654L8.49694 25.3637C8.98215 24.9883 9.99636 24.6736 11.8247 24.6736V22.2736ZM7.02845 23.4654C5.99515 24.2647 5.34639 25.323 5.34639 26.6177H7.74639C7.74639 26.2294 7.9085 25.8189 8.49694 25.3637L7.02845 23.4654ZM5.34639 26.6177C5.34639 27.4271 5.60811 28.169 6.10769 28.8049L7.99485 27.3221C7.82125 27.1011 7.74639 26.8793 7.74639 26.6177H5.34639ZM6.09524 28.7887C6.60418 29.4596 7.34055 29.9362 8.18502 30.2776L9.08451 28.0525C8.49083 27.8125 8.17154 27.5547 8.0073 27.3382L6.09524 28.7887ZM8.21799 30.2903C8.69346 30.4664 9.9734 30.8345 11.968 31.3784L12.5994 29.063C10.5549 28.5054 9.40224 28.1696 9.05154 28.0397L8.21799 30.2903ZM11.9741 31.3801C14.8965 32.1604 16.8508 32.783 17.9049 33.2468L18.8715 31.0501C17.6307 30.5041 15.5153 29.8415 12.5933 29.0613L11.9741 31.3801ZM17.9225 33.2544C18.8955 33.6641 19.6171 34.2455 20.1331 34.9895L22.1052 33.6218C21.3055 32.4687 20.2064 31.612 18.8539 31.0425L17.9225 33.2544ZM20.1331 34.9895C20.6236 35.6968 20.906 36.6224 20.906 37.8398H23.306C23.306 36.2422 22.9304 34.8117 22.1052 33.6218L20.1331 34.9895ZM20.906 37.8398C20.906 38.9652 20.579 40.0373 19.8893 41.0785L21.89 42.404C22.822 40.9972 23.306 39.4684 23.306 37.8398H20.906ZM19.8873 41.0814C19.2356 42.0715 18.273 42.8736 16.937 43.4674L17.9117 45.6605C19.6049 44.908 20.9525 43.8283 21.892 42.401L19.8873 41.0814ZM16.9463 43.4633C15.6044 44.0461 14.0574 44.3508 12.2837 44.3508V46.7508C14.3348 46.7508 16.2149 46.3976 17.9024 45.6646L16.9463 43.4633ZM12.2837 44.3508C9.25949 44.3508 7.14915 43.7192 5.77503 42.6351L4.28845 44.5192C6.24961 46.0666 8.97391 46.7508 12.2837 46.7508V44.3508ZM5.77925 42.6384C4.40734 41.546 3.46709 39.8859 3.04627 37.5154L0.683218 37.9348C1.18038 40.7355 2.35145 42.9768 4.28423 44.5159L5.77925 42.6384ZM37.0361 41.3052L38.2204 41.1115L38.0306 39.9509L36.8664 40.1172L37.0361 41.3052ZM37.6328 44.9541L37.88 46.1284L39.0021 45.8921L38.8171 44.7604L37.6328 44.9541ZM29.2793 42.751L28.1774 43.2263L28.1809 43.2343L29.2793 42.751ZM28.7744 23.8408H29.9744V22.6408H28.7744V23.8408ZM25.7451 23.8408H24.5451V25.0408H25.7451V23.8408ZM25.7451 20.6279V19.4279H24.5451V20.6279H25.7451ZM28.7744 20.6279V21.8279H29.9744V20.6279H28.7744ZM28.7744 14.5923L28.1545 13.5648L27.5744 13.9148V14.5923H28.7744ZM32.8823 12.1138H34.0823V9.98825L32.2624 11.0863L32.8823 12.1138ZM32.8823 20.6279H31.6823V21.8279H32.8823V20.6279ZM37.0361 20.6279H38.2361V19.4279H37.0361V20.6279ZM37.0361 23.8408V25.0408H38.2361V23.8408H37.0361ZM32.8823 23.8408V22.6408H31.6823V23.8408H32.8823ZM33.0889 40.3643L31.9782 40.8186L31.9869 40.8399L31.9964 40.8608L33.0889 40.3643ZM33.8003 41.1675L33.1687 42.1878L33.1792 42.1943L33.1898 42.2006L33.8003 41.1675ZM35.8519 41.4988L36.4485 45.1478L38.8171 44.7604L38.2204 41.1115L35.8519 41.4988ZM37.3856 43.7798C36.2817 44.0122 35.3265 44.1213 34.5117 44.1213V46.5213C35.5329 46.5213 36.6584 46.3856 37.88 46.1284L37.3856 43.7798ZM34.5117 44.1213C33.1128 44.1213 32.1895 43.8956 31.6209 43.5692L30.426 45.6506C31.5097 46.2727 32.9119 46.5213 34.5117 46.5213V44.1213ZM31.6209 43.5692C30.9845 43.2038 30.597 42.7661 30.3777 42.2677L28.1809 43.2343C28.6348 44.2658 29.41 45.0673 30.426 45.6506L31.6209 43.5692ZM30.3812 42.2757C30.2874 42.0582 30.1753 41.6043 30.0943 40.8204C30.0159 40.0617 29.9744 39.0794 29.9744 37.8628H27.5744C27.5744 39.1247 27.6171 40.1963 27.707 41.067C27.7943 41.9125 27.9346 42.6634 28.1774 43.2263L30.3812 42.2757ZM29.9744 37.8628V23.8408H27.5744V37.8628H29.9744ZM28.7744 22.6408H25.7451V25.0408H28.7744V22.6408ZM26.9451 23.8408V20.6279H24.5451V23.8408H26.9451ZM25.7451 21.8279H28.7744V19.4279H25.7451V21.8279ZM29.9744 20.6279V14.5923H27.5744V20.6279H29.9744ZM29.3943 15.6198L33.5023 13.1412L32.2624 11.0863L28.1545 13.5648L29.3943 15.6198ZM31.6823 12.1138V20.6279H34.0823V12.1138H31.6823ZM32.8823 21.8279H37.0361V19.4279H32.8823V21.8279ZM35.8361 20.6279V23.8408H38.2361V20.6279H35.8361ZM37.0361 22.6408H32.8823V25.0408H37.0361V22.6408ZM31.6823 23.8408V38.0923H34.0823V23.8408H31.6823ZM31.6823 38.0923C31.6823 38.7002 31.6999 39.2238 31.7389 39.6525C31.775 40.0497 31.8375 40.4747 31.9782 40.8186L34.1995 39.9099C34.2025 39.9172 34.1618 39.7952 34.129 39.4352C34.0992 39.1065 34.0823 38.6624 34.0823 38.0923H31.6823ZM31.9964 40.8608C32.25 41.4188 32.65 41.8667 33.1687 42.1878L34.4319 40.1472C34.308 40.0704 34.2337 39.9829 34.1813 39.8677L31.9964 40.8608ZM33.1898 42.2006C33.7877 42.5539 34.5071 42.6658 35.2231 42.6658V40.2658C34.7152 40.2658 34.486 40.1788 34.4108 40.1344L33.1898 42.2006ZM35.2231 42.6658C35.7634 42.6658 36.431 42.6038 37.2058 42.4931L36.8664 40.1172C36.1419 40.2207 35.6008 40.2658 35.2231 40.2658V42.6658Z" fill="white"/>
</svg>
