<svg width="40" height="38" viewBox="0 0 40 38" fill="none" xmlns="http://www.w3.org/2000/svg">
<path d="M1.86475 28.7251L5.94971 28.0825C6.1792 29.7196 6.81413 30.9741 7.85449 31.8462C8.91016 32.7183 10.3789 33.1543 12.2607 33.1543C14.1579 33.1543 15.5654 32.7718 16.4834 32.0068C17.4014 31.2266 17.8604 30.3162 17.8604 29.2759C17.8604 28.3426 17.4549 27.6082 16.644 27.0728C16.078 26.7056 14.6704 26.2389 12.4214 25.6729C9.39209 24.9079 7.28841 24.25 6.11035 23.6992C4.94759 23.1331 4.06022 22.3605 3.44824 21.3813C2.85156 20.3869 2.55322 19.293 2.55322 18.0996C2.55322 17.0133 2.79801 16.0112 3.2876 15.0933C3.79248 14.16 4.47331 13.3874 5.33008 12.7754C5.97266 12.3011 6.84473 11.9033 7.94629 11.582C9.06315 11.2454 10.2565 11.0771 11.5264 11.0771C13.4388 11.0771 15.1141 11.3525 16.5522 11.9033C18.0057 12.4541 19.0767 13.2038 19.7651 14.1523C20.4536 15.0856 20.9279 16.3402 21.188 17.916L17.1489 18.4668C16.9653 17.2122 16.4299 16.2331 15.5425 15.5293C14.6704 14.8255 13.4312 14.4736 11.8247 14.4736C9.92757 14.4736 8.57357 14.7873 7.7627 15.4146C6.95182 16.0418 6.54639 16.7762 6.54639 17.6177C6.54639 18.1532 6.71468 18.6351 7.05127 19.0635C7.38786 19.5072 7.91569 19.8743 8.63477 20.165C9.04785 20.318 10.2642 20.6699 12.2837 21.2207C15.2059 22.001 17.2407 22.6436 18.3882 23.1484C19.5509 23.638 20.4613 24.3571 21.1191 25.3057C21.777 26.2542 22.106 27.4323 22.106 28.8398C22.106 30.2168 21.7005 31.5173 20.8896 32.7412C20.0941 33.9499 18.939 34.8908 17.4243 35.564C15.9097 36.2218 14.1961 36.5508 12.2837 36.5508C9.1167 36.5508 6.69938 35.8929 5.03174 34.5771C3.37939 33.2614 2.32373 31.3107 1.86475 28.7251ZM37.0361 32.3052L37.6328 35.9541C36.4701 36.1989 35.4297 36.3213 34.5117 36.3213C33.0124 36.3213 31.8496 36.0841 31.0234 35.6099C30.1973 35.1356 29.6159 34.516 29.2793 33.751C28.9427 32.9707 28.7744 31.3413 28.7744 28.8628V14.8408H25.7451V11.6279H28.7744V5.59229L32.8823 3.11377V11.6279H37.0361V14.8408H32.8823V29.0923C32.8823 30.2703 32.9512 31.0277 33.0889 31.3643C33.2419 31.7008 33.479 31.9686 33.8003 32.1675C34.1369 32.3664 34.6112 32.4658 35.2231 32.4658C35.6821 32.4658 36.2865 32.4123 37.0361 32.3052Z" fill="#FF8577"/>
<path d="M1.86475 28.7251L1.67827 27.5397L0.469314 27.7298L0.683218 28.9348L1.86475 28.7251ZM5.94971 28.0825L7.13809 27.9159L6.96868 26.7075L5.76324 26.8971L5.94971 28.0825ZM7.85449 31.8462L7.08359 32.7659L7.09023 32.7713L7.85449 31.8462ZM16.4834 32.0068L17.2517 32.9287L17.2606 32.9212L16.4834 32.0068ZM16.644 27.0728L17.3053 26.0714L17.2971 26.066L16.644 27.0728ZM12.4214 25.6729L12.1276 26.8363L12.1285 26.8366L12.4214 25.6729ZM6.11035 23.6992L5.58508 24.7782L5.59357 24.7823L5.60212 24.7863L6.11035 23.6992ZM3.44824 21.3813L2.41925 21.9987L2.42486 22.0081L2.43064 22.0173L3.44824 21.3813ZM3.2876 15.0933L2.23213 14.5223L2.22877 14.5286L3.2876 15.0933ZM5.33008 12.7754L6.02756 13.7519L6.03518 13.7464L6.0427 13.7409L5.33008 12.7754ZM7.94629 11.582L8.2823 12.7341L8.29255 12.731L7.94629 11.582ZM16.5522 11.9033L16.1231 13.024L16.127 13.0255L16.5522 11.9033ZM19.7651 14.1523L18.7939 14.8572L18.7995 14.8647L19.7651 14.1523ZM21.188 17.916L21.3501 19.105L22.5729 18.9383L22.372 17.7206L21.188 17.916ZM17.1489 18.4668L15.9616 18.6406L16.1336 19.8164L17.3111 19.6558L17.1489 18.4668ZM15.5425 15.5293L14.7888 16.4632L14.7968 16.4695L15.5425 15.5293ZM7.05127 19.0635L8.0073 18.3382L8.00114 18.3301L7.99485 18.3221L7.05127 19.0635ZM8.63477 20.165L8.18502 21.2776L8.20141 21.2842L8.21799 21.2903L8.63477 20.165ZM12.2837 21.2207L11.9679 22.3784L11.9741 22.3801L12.2837 21.2207ZM18.3882 23.1484L17.9049 24.2468L17.9137 24.2507L17.9225 24.2544L18.3882 23.1484ZM20.8896 32.7412L19.8893 32.0785L19.8873 32.0814L20.8896 32.7412ZM17.4243 35.564L17.9024 36.6647L17.9117 36.6605L17.4243 35.564ZM5.03174 34.5771L4.28422 35.5159L4.28845 35.5192L5.03174 34.5771ZM2.05122 29.9105L6.13618 29.2679L5.76324 26.8971L1.67827 27.5397L2.05122 29.9105ZM4.76133 28.2491C5.02262 30.113 5.76862 31.6636 7.08361 32.7658L8.62537 30.9265C7.85964 30.2847 7.33577 29.3261 7.13809 27.9159L4.76133 28.2491ZM7.09023 32.7713C8.42932 33.8775 10.2038 34.3543 12.2607 34.3543V31.9543C10.554 31.9543 9.39099 31.559 8.61875 30.921L7.09023 32.7713ZM12.2607 34.3543C14.2834 34.3543 16.023 33.9525 17.2516 32.9287L15.7152 31.085C15.1078 31.5911 14.0324 31.9543 12.2607 31.9543V34.3543ZM17.2606 32.9212C18.3997 31.9529 19.0604 30.7258 19.0604 29.2759H16.6604C16.6604 29.9067 16.4031 30.5002 15.7062 31.0925L17.2606 32.9212ZM19.0604 29.2759C19.0604 27.92 18.4359 26.818 17.3053 26.0714L15.9828 28.0741C16.4739 28.3985 16.6604 28.7652 16.6604 29.2759H19.0604ZM17.2971 26.066C16.8754 25.7925 16.255 25.5449 15.5414 25.3083C14.7988 25.0621 13.8534 24.7959 12.7143 24.5091L12.1285 26.8366C13.2384 27.1159 14.1213 27.366 14.7862 27.5864C15.4802 27.8165 15.8466 27.9858 15.991 28.0795L17.2971 26.066ZM12.7152 24.5094C9.68588 23.7444 7.68239 23.1095 6.61859 22.6122L5.60212 24.7863C6.89444 25.3905 9.0983 26.0714 12.1276 26.8363L12.7152 24.5094ZM6.63562 22.6203C5.65026 22.1406 4.94458 21.5113 4.46584 20.7453L2.43064 22.0173C3.17587 23.2097 4.24492 24.1257 5.58508 24.7782L6.63562 22.6203ZM4.47723 20.764C3.99581 19.9616 3.75322 19.0821 3.75322 18.0996H1.35322C1.35322 19.5038 1.70732 20.8122 2.41925 21.9987L4.47723 20.764ZM3.75322 18.0996C3.75322 17.2013 3.95367 16.3944 4.34642 15.658L2.22877 14.5286C1.64236 15.6281 1.35322 16.8254 1.35322 18.0996H3.75322ZM4.34305 15.6642C4.76173 14.8903 5.32062 14.2568 6.02756 13.7519L4.63259 11.7989C3.626 12.5179 2.82323 13.4297 2.23215 14.5223L4.34305 15.6642ZM6.0427 13.7409C6.53376 13.3784 7.2621 13.0316 8.28229 12.734L7.61029 10.43C6.42735 10.7751 5.41155 11.2238 4.61746 11.8099L6.0427 13.7409ZM8.29255 12.731C9.28763 12.4311 10.3635 12.2771 11.5264 12.2771V9.87715C10.1495 9.87715 8.83868 10.0598 7.60003 10.4331L8.29255 12.731ZM11.5264 12.2771C13.3263 12.2771 14.8506 12.5366 16.1231 13.0239L16.9814 10.7827C15.3776 10.1685 13.5513 9.87715 11.5264 9.87715V12.2771ZM16.127 13.0255C17.4316 13.5198 18.2811 14.1506 18.794 14.8572L20.7363 13.4475C19.8722 12.257 18.5797 11.3884 16.9775 10.7812L16.127 13.0255ZM18.7995 14.8647C19.341 15.5989 19.7638 16.6559 20.004 18.1114L22.372 17.7206C22.092 16.0244 21.5662 14.5724 20.7308 13.44L18.7995 14.8647ZM21.0259 16.727L16.9868 17.2778L17.3111 19.6558L21.3501 19.105L21.0259 16.727ZM18.3363 18.293C18.1142 16.7752 17.4443 15.506 16.2882 14.5891L14.7968 16.4695C15.4154 16.9601 15.8165 17.6493 15.9616 18.6406L18.3363 18.293ZM16.2961 14.5955C15.1351 13.6585 13.5894 13.2736 11.8247 13.2736V15.6736C13.2729 15.6736 14.2057 15.9925 14.7889 16.4631L16.2961 14.5955ZM11.8247 13.2736C9.85878 13.2736 8.16498 13.5862 7.02845 14.4654L8.49694 16.3637C8.98215 15.9883 9.99636 15.6736 11.8247 15.6736V13.2736ZM7.02845 14.4654C5.99515 15.2647 5.34639 16.323 5.34639 17.6177H7.74639C7.74639 17.2294 7.9085 16.8189 8.49694 16.3637L7.02845 14.4654ZM5.34639 17.6177C5.34639 18.4271 5.60811 19.169 6.10769 19.8049L7.99485 18.3221C7.82125 18.1011 7.74639 17.8793 7.74639 17.6177H5.34639ZM6.09524 19.7887C6.60418 20.4596 7.34055 20.9362 8.18502 21.2776L9.08451 19.0525C8.49083 18.8125 8.17154 18.5547 8.0073 18.3382L6.09524 19.7887ZM8.21799 21.2903C8.69346 21.4664 9.9734 21.8345 11.968 22.3784L12.5994 20.063C10.5549 19.5054 9.40224 19.1696 9.05154 19.0397L8.21799 21.2903ZM11.9741 22.3801C14.8965 23.1604 16.8508 23.783 17.9049 24.2468L18.8715 22.0501C17.6307 21.5041 15.5153 20.8415 12.5933 20.0613L11.9741 22.3801ZM17.9225 24.2544C18.8955 24.6641 19.6171 25.2455 20.1331 25.9895L22.1052 24.6218C21.3055 23.4687 20.2064 22.612 18.8539 22.0425L17.9225 24.2544ZM20.1331 25.9895C20.6236 26.6968 20.906 27.6224 20.906 28.8398H23.306C23.306 27.2422 22.9304 25.8117 22.1052 24.6218L20.1331 25.9895ZM20.906 28.8398C20.906 29.9652 20.579 31.0373 19.8893 32.0785L21.89 33.404C22.822 31.9972 23.306 30.4684 23.306 28.8398H20.906ZM19.8873 32.0814C19.2356 33.0715 18.273 33.8736 16.937 34.4674L17.9117 36.6605C19.6049 35.908 20.9525 34.8283 21.892 33.401L19.8873 32.0814ZM16.9463 34.4633C15.6044 35.0461 14.0574 35.3508 12.2837 35.3508V37.7508C14.3348 37.7508 16.2149 37.3976 17.9024 36.6646L16.9463 34.4633ZM12.2837 35.3508C9.25949 35.3508 7.14915 34.7192 5.77503 33.6351L4.28845 35.5192C6.24961 37.0666 8.97391 37.7508 12.2837 37.7508V35.3508ZM5.77925 33.6384C4.40734 32.546 3.46709 30.8859 3.04627 28.5154L0.683218 28.9348C1.18038 31.7355 2.35145 33.9768 4.28423 35.5159L5.77925 33.6384ZM37.0361 32.3052L38.2204 32.1115L38.0306 30.9509L36.8664 31.1172L37.0361 32.3052ZM37.6328 35.9541L37.88 37.1284L39.0021 36.8921L38.8171 35.7604L37.6328 35.9541ZM29.2793 33.751L28.1774 34.2263L28.1809 34.2343L29.2793 33.751ZM28.7744 14.8408H29.9744V13.6408H28.7744V14.8408ZM25.7451 14.8408H24.5451V16.0408H25.7451V14.8408ZM25.7451 11.6279V10.4279H24.5451V11.6279H25.7451ZM28.7744 11.6279V12.8279H29.9744V11.6279H28.7744ZM28.7744 5.59229L28.1545 4.56482L27.5744 4.91481V5.59229H28.7744ZM32.8823 3.11377H34.0823V0.988245L32.2624 2.0863L32.8823 3.11377ZM32.8823 11.6279H31.6823V12.8279H32.8823V11.6279ZM37.0361 11.6279H38.2361V10.4279H37.0361V11.6279ZM37.0361 14.8408V16.0408H38.2361V14.8408H37.0361ZM32.8823 14.8408V13.6408H31.6823V14.8408H32.8823ZM33.0889 31.3643L31.9782 31.8186L31.9869 31.8399L31.9964 31.8608L33.0889 31.3643ZM33.8003 32.1675L33.1687 33.1878L33.1792 33.1943L33.1898 33.2006L33.8003 32.1675ZM35.8519 32.4988L36.4485 36.1478L38.8171 35.7604L38.2204 32.1115L35.8519 32.4988ZM37.3856 34.7798C36.2817 35.0122 35.3265 35.1213 34.5117 35.1213V37.5213C35.5329 37.5213 36.6584 37.3856 37.88 37.1284L37.3856 34.7798ZM34.5117 35.1213C33.1128 35.1213 32.1895 34.8956 31.6209 34.5692L30.426 36.6506C31.5097 37.2727 32.9119 37.5213 34.5117 37.5213V35.1213ZM31.6209 34.5692C30.9845 34.2038 30.597 33.7661 30.3777 33.2677L28.1809 34.2343C28.6348 35.2658 29.41 36.0673 30.426 36.6506L31.6209 34.5692ZM30.3812 33.2757C30.2874 33.0582 30.1753 32.6043 30.0943 31.8204C30.0159 31.0617 29.9744 30.0794 29.9744 28.8628H27.5744C27.5744 30.1247 27.6171 31.1963 27.707 32.067C27.7943 32.9125 27.9346 33.6634 28.1774 34.2263L30.3812 33.2757ZM29.9744 28.8628V14.8408H27.5744V28.8628H29.9744ZM28.7744 13.6408H25.7451V16.0408H28.7744V13.6408ZM26.9451 14.8408V11.6279H24.5451V14.8408H26.9451ZM25.7451 12.8279H28.7744V10.4279H25.7451V12.8279ZM29.9744 11.6279V5.59229H27.5744V11.6279H29.9744ZM29.3943 6.61975L33.5023 4.14124L32.2624 2.0863L28.1545 4.56482L29.3943 6.61975ZM31.6823 3.11377V11.6279H34.0823V3.11377H31.6823ZM32.8823 12.8279H37.0361V10.4279H32.8823V12.8279ZM35.8361 11.6279V14.8408H38.2361V11.6279H35.8361ZM37.0361 13.6408H32.8823V16.0408H37.0361V13.6408ZM31.6823 14.8408V29.0923H34.0823V14.8408H31.6823ZM31.6823 29.0923C31.6823 29.7002 31.6999 30.2238 31.7389 30.6525C31.775 31.0497 31.8375 31.4747 31.9782 31.8186L34.1995 30.9099C34.2025 30.9172 34.1618 30.7952 34.129 30.4352C34.0992 30.1065 34.0823 29.6624 34.0823 29.0923H31.6823ZM31.9964 31.8608C32.25 32.4188 32.65 32.8667 33.1687 33.1878L34.4319 31.1472C34.308 31.0704 34.2337 30.9829 34.1813 30.8677L31.9964 31.8608ZM33.1898 33.2006C33.7877 33.5539 34.5071 33.6658 35.2231 33.6658V31.2658C34.7152 31.2658 34.486 31.1788 34.4108 31.1344L33.1898 33.2006ZM35.2231 33.6658C35.7634 33.6658 36.431 33.6038 37.2058 33.4931L36.8664 31.1172C36.1419 31.2207 35.6008 31.2658 35.2231 31.2658V33.6658Z" fill="white"/>
</svg>
